<svg xmlns="http://www.w3.org/2000/svg" version="1.1" xmlns:xlink="http://www.w3.org/1999/xlink" xmlns:svgjs="http://svgjs.dev/svgjs" viewBox="0 0 800 800"><g fill="none" stroke-width="5.5" stroke="hsl(335, 24%, 52%)" stroke-linecap="square" stroke-dasharray="16 0"><line x1="666.5" y1="400" x2="133.5" y2="400" transform="rotate(0, 400, 400)" opacity="0.80"></line><line x1="487.5" y1="400" x2="312.5" y2="400" transform="rotate(4, 400, 400)" opacity="0.26"></line><line x1="9" y1="400" x2="791" y2="400" transform="rotate(8, 400, 400)" opacity="0.40"></line><line x1="267.5" y1="400" x2="532.5" y2="400" transform="rotate(12, 400, 400)" opacity="0.37"></line><line x1="385.5" y1="400" x2="414.5" y2="400" transform="rotate(16, 400, 400)" opacity="0.39"></line><line x1="-96.5" y1="400" x2="896.5" y2="400" transform="rotate(20, 400, 400)" opacity="0.93"></line><line x1="402" y1="400" x2="398" y2="400" transform="rotate(24, 400, 400)" opacity="0.36"></line><line x1="205" y1="400" x2="595" y2="400" transform="rotate(28, 400, 400)" opacity="0.20"></line><line x1="654" y1="400" x2="146" y2="400" transform="rotate(32, 400, 400)" opacity="0.80"></line><line x1="465.5" y1="400" x2="334.5" y2="400" transform="rotate(36, 400, 400)" opacity="0.43"></line><line x1="151" y1="400" x2="649" y2="400" transform="rotate(40, 400, 400)" opacity="0.35"></line><line x1="710.5" y1="400" x2="89.5" y2="400" transform="rotate(44, 400, 400)" opacity="0.33"></line><line x1="247.5" y1="400" x2="552.5" y2="400" transform="rotate(48, 400, 400)" opacity="0.34"></line><line x1="691" y1="400" x2="109" y2="400" transform="rotate(52, 400, 400)" opacity="0.45"></line><line x1="79" y1="400" x2="721" y2="400" transform="rotate(56, 400, 400)" opacity="0.39"></line><line x1="373" y1="400" x2="427" y2="400" transform="rotate(60, 400, 400)" opacity="0.97"></line><line x1="692" y1="400" x2="108" y2="400" transform="rotate(64, 400, 400)" opacity="0.34"></line><line x1="441.5" y1="400" x2="358.5" y2="400" transform="rotate(68, 400, 400)" opacity="0.92"></line><line x1="525.5" y1="400" x2="274.5" y2="400" transform="rotate(72, 400, 400)" opacity="0.17"></line><line x1="238" y1="400" x2="562" y2="400" transform="rotate(76, 400, 400)" opacity="0.69"></line><line x1="673" y1="400" x2="127" y2="400" transform="rotate(80, 400, 400)" opacity="0.18"></line><line x1="-8.5" y1="400" x2="808.5" y2="400" transform="rotate(84, 400, 400)" opacity="0.33"></line><line x1="258" y1="400" x2="542" y2="400" transform="rotate(88, 400, 400)" opacity="1.00"></line><line x1="-110" y1="400" x2="910" y2="400" transform="rotate(92, 400, 400)" opacity="0.69"></line><line x1="398.5" y1="400" x2="401.5" y2="400" transform="rotate(96, 400, 400)" opacity="0.98"></line><line x1="292" y1="400" x2="508" y2="400" transform="rotate(100, 400, 400)" opacity="0.96"></line><line x1="-2" y1="400" x2="802" y2="400" transform="rotate(104, 400, 400)" opacity="0.59"></line><line x1="-14" y1="400" x2="814" y2="400" transform="rotate(108, 400, 400)" opacity="0.14"></line><line x1="667.5" y1="400" x2="132.5" y2="400" transform="rotate(112, 400, 400)" opacity="0.58"></line><line x1="475.5" y1="400" x2="324.5" y2="400" transform="rotate(116, 400, 400)" opacity="0.73"></line><line x1="461" y1="400" x2="339" y2="400" transform="rotate(120, 400, 400)" opacity="0.74"></line><line x1="126" y1="400" x2="674" y2="400" transform="rotate(124, 400, 400)" opacity="0.92"></line><line x1="-14" y1="400" x2="814" y2="400" transform="rotate(128, 400, 400)" opacity="0.23"></line><line x1="706.5" y1="400" x2="93.5" y2="400" transform="rotate(132, 400, 400)" opacity="0.69"></line><line x1="521" y1="400" x2="279" y2="400" transform="rotate(136, 400, 400)" opacity="0.40"></line><line x1="-118" y1="400" x2="918" y2="400" transform="rotate(140, 400, 400)" opacity="0.91"></line><line x1="223" y1="400" x2="577" y2="400" transform="rotate(144, 400, 400)" opacity="0.15"></line><line x1="128" y1="400" x2="672" y2="400" transform="rotate(148, 400, 400)" opacity="0.39"></line><line x1="449.5" y1="400" x2="350.5" y2="400" transform="rotate(152, 400, 400)" opacity="0.94"></line><line x1="-42.5" y1="400" x2="842.5" y2="400" transform="rotate(156, 400, 400)" opacity="0.84"></line><line x1="677.5" y1="400" x2="122.5" y2="400" transform="rotate(160, 400, 400)" opacity="0.75"></line><line x1="33.5" y1="400" x2="766.5" y2="400" transform="rotate(164, 400, 400)" opacity="0.63"></line><line x1="540" y1="400" x2="260" y2="400" transform="rotate(168, 400, 400)" opacity="0.91"></line><line x1="286" y1="400" x2="514" y2="400" transform="rotate(172, 400, 400)" opacity="0.30"></line><line x1="529" y1="400" x2="271" y2="400" transform="rotate(176, 400, 400)" opacity="0.52"></line><line x1="686" y1="400" x2="114" y2="400" transform="rotate(180, 400, 400)" opacity="0.78"></line><line x1="421.5" y1="400" x2="378.5" y2="400" transform="rotate(184, 400, 400)" opacity="0.49"></line><line x1="484.5" y1="400" x2="315.5" y2="400" transform="rotate(188, 400, 400)" opacity="0.74"></line><line x1="177" y1="400" x2="623" y2="400" transform="rotate(192, 400, 400)" opacity="0.36"></line><line x1="368" y1="400" x2="432" y2="400" transform="rotate(196, 400, 400)" opacity="0.74"></line><line x1="498" y1="400" x2="302" y2="400" transform="rotate(200, 400, 400)" opacity="0.22"></line><line x1="633" y1="400" x2="167" y2="400" transform="rotate(204, 400, 400)" opacity="0.96"></line><line x1="448" y1="400" x2="352" y2="400" transform="rotate(208, 400, 400)" opacity="0.40"></line><line x1="366" y1="400" x2="434" y2="400" transform="rotate(212, 400, 400)" opacity="0.49"></line><line x1="-54" y1="400" x2="854" y2="400" transform="rotate(216, 400, 400)" opacity="0.30"></line><line x1="521.5" y1="400" x2="278.5" y2="400" transform="rotate(220, 400, 400)" opacity="0.67"></line><line x1="603" y1="400" x2="197" y2="400" transform="rotate(224, 400, 400)" opacity="0.56"></line><line x1="74" y1="400" x2="726" y2="400" transform="rotate(228, 400, 400)" opacity="0.28"></line><line x1="522.5" y1="400" x2="277.5" y2="400" transform="rotate(232, 400, 400)" opacity="0.57"></line><line x1="-51" y1="400" x2="851" y2="400" transform="rotate(236, 400, 400)" opacity="0.57"></line><line x1="211.5" y1="400" x2="588.5" y2="400" transform="rotate(240, 400, 400)" opacity="0.41"></line><line x1="508.5" y1="400" x2="291.5" y2="400" transform="rotate(244, 400, 400)" opacity="0.22"></line><line x1="493" y1="400" x2="307" y2="400" transform="rotate(248, 400, 400)" opacity="0.90"></line><line x1="709" y1="400" x2="91" y2="400" transform="rotate(252, 400, 400)" opacity="0.16"></line><line x1="115.5" y1="400" x2="684.5" y2="400" transform="rotate(256, 400, 400)" opacity="0.50"></line><line x1="150" y1="400" x2="650" y2="400" transform="rotate(260, 400, 400)" opacity="0.84"></line><line x1="-109" y1="400" x2="909" y2="400" transform="rotate(264, 400, 400)" opacity="0.58"></line><line x1="69" y1="400" x2="731" y2="400" transform="rotate(268, 400, 400)" opacity="0.51"></line><line x1="114.5" y1="400" x2="685.5" y2="400" transform="rotate(272, 400, 400)" opacity="0.18"></line><line x1="504" y1="400" x2="296" y2="400" transform="rotate(276, 400, 400)" opacity="0.31"></line><line x1="269.5" y1="400" x2="530.5" y2="400" transform="rotate(280, 400, 400)" opacity="0.28"></line><line x1="174.5" y1="400" x2="625.5" y2="400" transform="rotate(284, 400, 400)" opacity="0.65"></line><line x1="508" y1="400" x2="292" y2="400" transform="rotate(288, 400, 400)" opacity="0.82"></line><line x1="420" y1="400" x2="380" y2="400" transform="rotate(292, 400, 400)" opacity="0.53"></line><line x1="707" y1="400" x2="93" y2="400" transform="rotate(296, 400, 400)" opacity="0.44"></line><line x1="-17.5" y1="400" x2="817.5" y2="400" transform="rotate(300, 400, 400)" opacity="0.71"></line><line x1="83" y1="400" x2="717" y2="400" transform="rotate(304, 400, 400)" opacity="0.66"></line><line x1="685" y1="400" x2="115" y2="400" transform="rotate(308, 400, 400)" opacity="0.88"></line><line x1="253.5" y1="400" x2="546.5" y2="400" transform="rotate(312, 400, 400)" opacity="0.95"></line><line x1="546.5" y1="400" x2="253.5" y2="400" transform="rotate(316, 400, 400)" opacity="0.30"></line><line x1="477.5" y1="400" x2="322.5" y2="400" transform="rotate(320, 400, 400)" opacity="0.61"></line><line x1="674.5" y1="400" x2="125.5" y2="400" transform="rotate(324, 400, 400)" opacity="0.77"></line><line x1="263" y1="400" x2="537" y2="400" transform="rotate(328, 400, 400)" opacity="0.10"></line><line x1="-70.5" y1="400" x2="870.5" y2="400" transform="rotate(332, 400, 400)" opacity="0.44"></line><line x1="-96" y1="400" x2="896" y2="400" transform="rotate(336, 400, 400)" opacity="0.79"></line><line x1="660.5" y1="400" x2="139.5" y2="400" transform="rotate(340, 400, 400)" opacity="0.21"></line><line x1="208.5" y1="400" x2="591.5" y2="400" transform="rotate(344, 400, 400)" opacity="0.69"></line><line x1="264" y1="400" x2="536" y2="400" transform="rotate(348, 400, 400)" opacity="0.08"></line></g></svg>