<?xml version="1.0" encoding="UTF-8" standalone="no"?>
<!-- Created with Inkscape (http://www.inkscape.org/) -->

<svg
   width="48"
   height="48"
   viewBox="0 0 48 48"
   version="1.1"
   id="svg5"
   xml:space="preserve"
   inkscape:version="1.2.2 (732a01da63, 2022-12-09)"
   sodipodi:docname="iconfire.svg"
   xmlns:inkscape="http://www.inkscape.org/namespaces/inkscape"
   xmlns:sodipodi="http://sodipodi.sourceforge.net/DTD/sodipodi-0.dtd"
   xmlns="http://www.w3.org/2000/svg"
   xmlns:svg="http://www.w3.org/2000/svg"><sodipodi:namedview
     id="namedview7"
     pagecolor="#ffffff"
     bordercolor="#000000"
     borderopacity="0.25"
     inkscape:showpageshadow="2"
     inkscape:pageopacity="0.0"
     inkscape:pagecheckerboard="0"
     inkscape:deskcolor="#d1d1d1"
     inkscape:document-units="px"
     showgrid="false"
     inkscape:zoom="4.9166667"
     inkscape:cx="86.033898"
     inkscape:cy="50.237288"
     inkscape:window-width="2560"
     inkscape:window-height="1377"
     inkscape:window-x="1912"
     inkscape:window-y="-8"
     inkscape:window-maximized="1"
     inkscape:current-layer="layer2" /><defs
     id="defs2" /><g
     inkscape:label="Layer 1"
     inkscape:groupmode="layer"
     id="layer1"><g
       id="layer2"
       transform="matrix(0.32112353,0,0,0.32112353,-136.35722,-4.8073117)"><rect
         style="opacity:0.735556;fill:#000000;fill-opacity:1;stroke:#003399;stroke-width:0;stroke-dasharray:none"
         id="rect444"
         width="48.203392"
         height="47.796612"
         x="0"
         y="0"
         transform="matrix(3.1140664,0,0,3.1140664,424.62544,14.970288)" /><g
         id="g4680"
         transform="translate(-171.76508,-20.99125)"><path
           style="opacity:1;fill:#ff1000;fill-opacity:1;stroke:#000004;stroke-width:0.784735"
           d="m 675.58864,82.758091 c 0.99706,5.865413 -8.86013,9.510939 -14.42315,12.676787 -4.70027,2.674865 -12.28446,-42.74606 -15.43243,5.006702 -2.87832,14.31501 -4.29422,8.48505 -5.76592,12.55477 -3.80517,10.52245 -15.521,8.68018 -15.521,28.32309 0,19.64291 -1.08602,13.75 1.88546,16.47854 23.06578,21.17997 15.40509,16.01152 25.71662,19.97656 12.43197,4.7804 27.76984,8.11325 40.18225,3.28875 12.97332,-5.04252 14.83891,-8.58286 26.97291,-30.24529 12.26864,-21.9028 9.28812,-16.06708 8.35731,-24.71311 -4.70567,-43.709565 0.50943,-45.138213 -14.0209,-19.24199 -4.90345,8.73902 -2.46071,9.02709 -5.90552,8.1046 -7.18605,-1.92442 3.85533,-14.66187 0,-20.205743 -5.24821,-7.546799 -1.44472,-15.735169 -7.14162,-21.118188 -35.31874,-33.372771 -55.78938,-55.628504 -33.87875,-15.498134 13.23826,24.246507 7.14182,13.830091 8.97474,24.612656 z"
           id="path4402" /><g
           id="g4667"><path
             style="opacity:1;fill:#ff9800;fill-opacity:1;stroke:#000004;stroke-width:0.654294"
             d="m 640.74445,59.009951 c 0,0 -12.31208,15.529236 -12.53008,25.221708 -0.31119,13.834926 16.2427,37.027591 16.2427,37.027591 l 34.80579,-19.85538 c 0,0 -20.91366,-8.720909 -28.3087,-17.70885 -5.43697,-6.608055 -10.20971,-24.685069 -10.20971,-24.685069 z"
             id="path2791" /><path
             style="opacity:1;fill:#ff1000;fill-opacity:1;stroke:#000004;stroke-width:0.600925"
             d="m 656.16275,50.918316 c -5.75547,6.850685 -11.39954,0.132594 -5.75547,6.850685 5.64407,6.71809 3.87777,15.819315 5.86687,6.983279 1.9891,-8.836037 4.26311,-4.147823 -0.1114,-13.833964 z"
             id="path4378" /><path
             style="fill:#ff1000;fill-opacity:1;stroke:#000004;stroke-width:0.600925"
             d="m 623.14448,110.54578 c -5.75547,-6.85068 -11.39954,-0.13259 -5.75547,-6.85068 5.64407,-6.718089 3.87777,-15.819314 5.86687,-6.983279 1.9891,8.836039 4.26311,4.147819 -0.1114,13.833959 z"
             id="path4378-5" /><path
             style="fill:#ffe600;fill-opacity:1;stroke:#000004;stroke-width:0.532443"
             d="m 692.11242,112.06979 c 0,0 9.82334,12.88908 9.99728,20.93373 0.24828,11.48283 -12.95944,30.7325 -12.95944,30.7325 l -27.77021,-16.47975 c 0,0 16.68621,-7.23827 22.58644,-14.69816 4.33794,-5.48462 8.14593,-20.48832 8.14593,-20.48832 z"
             id="path2791-7" /><path
             style="fill:#f9f8f8;fill-opacity:1;stroke:#000004;stroke-width:0.787729"
             d="m 690.51695,149.50071 c -8.44641,-8.0215 -16.72933,-0.15525 -8.44641,-8.0215 8.28293,-7.86625 5.6908,-18.52294 8.60989,-8.17676 2.9191,10.34617 6.25631,4.8567 -0.16348,16.19826 z"
             id="path4378-5-8-2" /><path
             style="fill:#ff9800;fill-opacity:1;stroke:#000004;stroke-width:0.526375"
             d="m 675.74347,112.48914 c -6.85605,9.48877 -6.26413,5.74687 -6.85605,9.48877 -0.48662,3.07623 -1.88404,11.16969 2.99136,8.92052 4.87538,-2.24918 3.57155,-15.72763 4.87538,-2.24918 0.64722,6.69058 -4.30567,6.15109 -1.07867,5.7135 6.69421,-0.90775 -0.37502,-5.32558 7.11028,5.03405 7.48528,10.35961 7.48528,-2.87188 7.48528,10.35961 0,13.23148 16.39421,0.13168 0,13.23148 -16.39421,13.09982 -11.38441,9.53403 -17.42636,13.92454 -3.91154,2.84242 -0.64702,10.92703 -19.56426,-4.1888 -18.91724,-15.11583 -13.60433,0.72779 -18.91724,-15.11583 -5.31292,-15.84361 -14.94745,-3.68538 -5.58224,-16.64678 9.36521,-12.96142 -2.12733,-26.81957 1.81437,-21.36427 3.94171,5.45531 4.19991,24.55329 8.25932,11.71253 4.09903,-12.966 -7.79593,-0.45323 3.23608,-11.46103 9.94792,-9.92611 0.52964,-2.14655 11.88956,-13.24816 8.30118,-8.112425 1.87478,-1.52217 14.43114,-11.416641 19.02964,-14.995451 7.33205,17.305691 7.33205,17.305691 z"
             id="path4402-5" /><path
             style="fill:#f9f8f8;fill-opacity:1;stroke:#000004;stroke-width:0.600925"
             d="m 661.37789,159.62379 c 5.75547,-6.85068 11.39954,-0.13259 5.75547,-6.85068 -5.64407,-6.71809 -3.87777,-15.81932 -5.86687,-6.98328 -1.9891,8.83604 -4.26311,4.14782 0.1114,13.83396 z"
             id="path4378-5-8" /><path
             style="opacity:1;fill:#ffe600;fill-opacity:1;stroke:#000004;stroke-width:0.821486"
             d="m 672.24143,132.00433 c -8.89318,23.47877 -3.8457,27.7662 -8.89318,23.47877 -5.04745,-4.28742 -2.75165,-4.81844 -5.04745,-4.28742 -2.15619,0.49873 -5.28783,-6.73739 -1.6825,5.5124 3.60534,12.2498 2.41302,9.44006 4.56676,13.8831 1.81621,3.74677 2.37198,9.53853 6.97032,10.6165 10.96848,2.57125 30.28479,3.06243 29.56372,-14.49559 -0.72107,-17.55803 2.71231,-14.64024 -3.36498,-17.55803 -2.25362,-1.08202 -4.74411,3.11745 -7.21066,2.44994 -8.72393,-2.36085 -14.90203,-19.59967 -14.90203,-19.59967 z"
             id="path4575" /><path
             style="fill:#ff9800;fill-opacity:1;stroke:#000004;stroke-width:0.455315"
             d="m 681.81281,155.7994 c 5.01687,12.78562 2.16946,15.12039 5.01687,12.78562 2.8474,-2.33476 1.55228,-2.62393 2.8474,-2.33476 1.21636,0.27159 2.983,-3.66892 0.94914,3.00184 -2.03387,6.67077 -1.36125,5.14069 -2.57623,7.5602 -1.02457,2.04034 -1.33809,5.19431 -3.93214,5.78133 -6.1876,1.4002 -17.08443,1.66768 -16.67765,-7.89373 0.40677,-9.56143 -1.53009,-7.97251 1.89827,-9.56143 1.27132,-0.58922 2.67627,1.69765 4.06772,1.33415 4.92139,-1.28563 8.40662,-10.67322 8.40662,-10.67322 z"
             id="path4575-7" /></g></g></g></g></svg>
