<svg xmlns="http://www.w3.org/2000/svg" version="1.1" xmlns:xlink="http://www.w3.org/1999/xlink" xmlns:svgjs="http://svgjs.dev/svgjs" viewBox="0 0 800 800"><g fill="none" stroke-width="5.5" stroke="hsl(0, 0%, 80%)" stroke-linecap="square" stroke-dasharray="16 0"><line x1="-31" y1="400" x2="831" y2="400" transform="rotate(0, 400, 400)" opacity="0.26"></line><line x1="243.5" y1="400" x2="556.5" y2="400" transform="rotate(4, 400, 400)" opacity="0.30"></line><line x1="302.5" y1="400" x2="497.5" y2="400" transform="rotate(8, 400, 400)" opacity="0.96"></line><line x1="141" y1="400" x2="659" y2="400" transform="rotate(12, 400, 400)" opacity="0.13"></line><line x1="607" y1="400" x2="193" y2="400" transform="rotate(16, 400, 400)" opacity="0.22"></line><line x1="-40.5" y1="400" x2="840.5" y2="400" transform="rotate(20, 400, 400)" opacity="0.77"></line><line x1="-30.5" y1="400" x2="830.5" y2="400" transform="rotate(24, 400, 400)" opacity="0.30"></line><line x1="139.5" y1="400" x2="660.5" y2="400" transform="rotate(28, 400, 400)" opacity="0.93"></line><line x1="570.5" y1="400" x2="229.5" y2="400" transform="rotate(32, 400, 400)" opacity="0.81"></line><line x1="585" y1="400" x2="215" y2="400" transform="rotate(36, 400, 400)" opacity="0.87"></line><line x1="550" y1="400" x2="250" y2="400" transform="rotate(40, 400, 400)" opacity="0.85"></line><line x1="448" y1="400" x2="352" y2="400" transform="rotate(44, 400, 400)" opacity="0.10"></line><line x1="-9" y1="400" x2="809" y2="400" transform="rotate(48, 400, 400)" opacity="0.17"></line><line x1="540.5" y1="400" x2="259.5" y2="400" transform="rotate(52, 400, 400)" opacity="0.20"></line><line x1="606.5" y1="400" x2="193.5" y2="400" transform="rotate(56, 400, 400)" opacity="0.76"></line><line x1="121.5" y1="400" x2="678.5" y2="400" transform="rotate(60, 400, 400)" opacity="0.29"></line><line x1="436.5" y1="400" x2="363.5" y2="400" transform="rotate(64, 400, 400)" opacity="0.70"></line><line x1="501" y1="400" x2="299" y2="400" transform="rotate(68, 400, 400)" opacity="0.97"></line><line x1="-108" y1="400" x2="908" y2="400" transform="rotate(72, 400, 400)" opacity="0.51"></line><line x1="394.5" y1="400" x2="405.5" y2="400" transform="rotate(76, 400, 400)" opacity="0.86"></line><line x1="212.5" y1="400" x2="587.5" y2="400" transform="rotate(80, 400, 400)" opacity="0.26"></line><line x1="-103" y1="400" x2="903" y2="400" transform="rotate(84, 400, 400)" opacity="0.60"></line><line x1="625" y1="400" x2="175" y2="400" transform="rotate(88, 400, 400)" opacity="0.82"></line><line x1="78" y1="400" x2="722" y2="400" transform="rotate(92, 400, 400)" opacity="0.66"></line><line x1="222.5" y1="400" x2="577.5" y2="400" transform="rotate(96, 400, 400)" opacity="0.83"></line><line x1="50" y1="400" x2="750" y2="400" transform="rotate(100, 400, 400)" opacity="0.72"></line><line x1="494.5" y1="400" x2="305.5" y2="400" transform="rotate(104, 400, 400)" opacity="0.99"></line><line x1="445.5" y1="400" x2="354.5" y2="400" transform="rotate(108, 400, 400)" opacity="0.37"></line><line x1="78.5" y1="400" x2="721.5" y2="400" transform="rotate(112, 400, 400)" opacity="0.35"></line><line x1="505" y1="400" x2="295" y2="400" transform="rotate(116, 400, 400)" opacity="0.90"></line><line x1="412" y1="400" x2="388" y2="400" transform="rotate(120, 400, 400)" opacity="0.79"></line><line x1="-55.5" y1="400" x2="855.5" y2="400" transform="rotate(124, 400, 400)" opacity="0.51"></line><line x1="66" y1="400" x2="734" y2="400" transform="rotate(128, 400, 400)" opacity="0.83"></line><line x1="617.5" y1="400" x2="182.5" y2="400" transform="rotate(132, 400, 400)" opacity="0.15"></line><line x1="393" y1="400" x2="407" y2="400" transform="rotate(136, 400, 400)" opacity="0.92"></line><line x1="203.5" y1="400" x2="596.5" y2="400" transform="rotate(140, 400, 400)" opacity="0.65"></line><line x1="550.5" y1="400" x2="249.5" y2="400" transform="rotate(144, 400, 400)" opacity="0.95"></line><line x1="438" y1="400" x2="362" y2="400" transform="rotate(148, 400, 400)" opacity="0.97"></line><line x1="431" y1="400" x2="369" y2="400" transform="rotate(152, 400, 400)" opacity="0.72"></line><line x1="151" y1="400" x2="649" y2="400" transform="rotate(156, 400, 400)" opacity="0.90"></line><line x1="464.5" y1="400" x2="335.5" y2="400" transform="rotate(160, 400, 400)" opacity="0.37"></line><line x1="138.5" y1="400" x2="661.5" y2="400" transform="rotate(164, 400, 400)" opacity="0.78"></line><line x1="445.5" y1="400" x2="354.5" y2="400" transform="rotate(168, 400, 400)" opacity="0.21"></line><line x1="305.5" y1="400" x2="494.5" y2="400" transform="rotate(172, 400, 400)" opacity="0.51"></line><line x1="374.5" y1="400" x2="425.5" y2="400" transform="rotate(176, 400, 400)" opacity="0.08"></line><line x1="450" y1="400" x2="350" y2="400" transform="rotate(180, 400, 400)" opacity="0.12"></line><line x1="452.5" y1="400" x2="347.5" y2="400" transform="rotate(184, 400, 400)" opacity="0.66"></line><line x1="407" y1="400" x2="393" y2="400" transform="rotate(188, 400, 400)" opacity="0.34"></line><line x1="674.5" y1="400" x2="125.5" y2="400" transform="rotate(192, 400, 400)" opacity="0.23"></line><line x1="-62.5" y1="400" x2="862.5" y2="400" transform="rotate(196, 400, 400)" opacity="0.34"></line><line x1="228" y1="400" x2="572" y2="400" transform="rotate(200, 400, 400)" opacity="0.73"></line><line x1="597.5" y1="400" x2="202.5" y2="400" transform="rotate(204, 400, 400)" opacity="0.54"></line><line x1="153.5" y1="400" x2="646.5" y2="400" transform="rotate(208, 400, 400)" opacity="0.54"></line><line x1="-71" y1="400" x2="871" y2="400" transform="rotate(212, 400, 400)" opacity="0.99"></line><line x1="615" y1="400" x2="185" y2="400" transform="rotate(216, 400, 400)" opacity="0.40"></line><line x1="158.5" y1="400" x2="641.5" y2="400" transform="rotate(220, 400, 400)" opacity="0.86"></line><line x1="207.5" y1="400" x2="592.5" y2="400" transform="rotate(224, 400, 400)" opacity="0.15"></line><line x1="-21.5" y1="400" x2="821.5" y2="400" transform="rotate(228, 400, 400)" opacity="0.68"></line><line x1="463" y1="400" x2="337" y2="400" transform="rotate(232, 400, 400)" opacity="0.44"></line><line x1="-115.5" y1="400" x2="915.5" y2="400" transform="rotate(236, 400, 400)" opacity="0.49"></line><line x1="276" y1="400" x2="524" y2="400" transform="rotate(240, 400, 400)" opacity="0.24"></line><line x1="491.5" y1="400" x2="308.5" y2="400" transform="rotate(244, 400, 400)" opacity="0.62"></line><line x1="348" y1="400" x2="452" y2="400" transform="rotate(248, 400, 400)" opacity="0.38"></line><line x1="66" y1="400" x2="734" y2="400" transform="rotate(252, 400, 400)" opacity="0.16"></line><line x1="546" y1="400" x2="254" y2="400" transform="rotate(256, 400, 400)" opacity="0.44"></line><line x1="469.5" y1="400" x2="330.5" y2="400" transform="rotate(260, 400, 400)" opacity="0.62"></line><line x1="-111" y1="400" x2="911" y2="400" transform="rotate(264, 400, 400)" opacity="0.23"></line><line x1="-36" y1="400" x2="836" y2="400" transform="rotate(268, 400, 400)" opacity="0.85"></line><line x1="-76" y1="400" x2="876" y2="400" transform="rotate(272, 400, 400)" opacity="0.67"></line><line x1="323.5" y1="400" x2="476.5" y2="400" transform="rotate(276, 400, 400)" opacity="0.44"></line><line x1="490.5" y1="400" x2="309.5" y2="400" transform="rotate(280, 400, 400)" opacity="0.64"></line><line x1="463" y1="400" x2="337" y2="400" transform="rotate(284, 400, 400)" opacity="0.12"></line><line x1="78.5" y1="400" x2="721.5" y2="400" transform="rotate(288, 400, 400)" opacity="0.83"></line><line x1="631.5" y1="400" x2="168.5" y2="400" transform="rotate(292, 400, 400)" opacity="0.95"></line><line x1="706.5" y1="400" x2="93.5" y2="400" transform="rotate(296, 400, 400)" opacity="0.61"></line><line x1="-108.5" y1="400" x2="908.5" y2="400" transform="rotate(300, 400, 400)" opacity="0.88"></line><line x1="386" y1="400" x2="414" y2="400" transform="rotate(304, 400, 400)" opacity="0.56"></line><line x1="293" y1="400" x2="507" y2="400" transform="rotate(308, 400, 400)" opacity="0.14"></line><line x1="682.5" y1="400" x2="117.5" y2="400" transform="rotate(312, 400, 400)" opacity="0.98"></line><line x1="206.5" y1="400" x2="593.5" y2="400" transform="rotate(316, 400, 400)" opacity="0.55"></line><line x1="187.5" y1="400" x2="612.5" y2="400" transform="rotate(320, 400, 400)" opacity="0.23"></line><line x1="94.5" y1="400" x2="705.5" y2="400" transform="rotate(324, 400, 400)" opacity="0.30"></line><line x1="88" y1="400" x2="712" y2="400" transform="rotate(328, 400, 400)" opacity="0.79"></line><line x1="438.5" y1="400" x2="361.5" y2="400" transform="rotate(332, 400, 400)" opacity="0.43"></line><line x1="656.5" y1="400" x2="143.5" y2="400" transform="rotate(336, 400, 400)" opacity="0.30"></line><line x1="-1" y1="400" x2="801" y2="400" transform="rotate(340, 400, 400)" opacity="0.48"></line><line x1="704.5" y1="400" x2="95.5" y2="400" transform="rotate(344, 400, 400)" opacity="0.32"></line><line x1="146" y1="400" x2="654" y2="400" transform="rotate(348, 400, 400)" opacity="0.70"></line></g></svg>